<svg width="24" height="24" viewBox="0 0 24 24" fill="none" xmlns="http://www.w3.org/2000/svg">
<path d="M12.4343 16.86C12.3073 16.9504 12.1552 16.999 11.9993 16.999C11.8434 16.999 11.6913 16.9504 11.5643 16.86C7.80831 14.183 3.82132 8.677 7.85132 4.698C8.95679 3.6084 10.4471 2.99833 11.9993 3C13.5553 3 15.0473 3.61 16.1473 4.697C20.1773 8.676 16.1903 14.181 12.4343 16.86Z" stroke="#DADADA" stroke-width="1.5" stroke-linecap="round" stroke-linejoin="round"/>
<path d="M6.5 17L4.5 21H19.5L17.5 17M12 11C12.5304 11 13.0391 10.7893 13.4142 10.4142C13.7893 10.0391 14 9.53043 14 9C14 8.46957 13.7893 7.96086 13.4142 7.58579C13.0391 7.21071 12.5304 7 12 7C11.4696 7 10.9609 7.21071 10.5858 7.58579C10.2107 7.96086 10 8.46957 10 9C10 9.53043 10.2107 10.0391 10.5858 10.4142C10.9609 10.7893 11.4696 11 12 11Z" stroke="#DADADA" stroke-width="1.5" stroke-linecap="round" stroke-linejoin="round"/>
</svg>
