<svg width="23" height="23" viewBox="0 0 23 23" fill="none" xmlns="http://www.w3.org/2000/svg">
<path d="M16.9272 7.44018H16.0011V5.58785C16.0011 3.03164 13.9265 0.957031 11.3702 0.957031C8.81403 0.957031 6.73943 3.03164 6.73943 5.58785V7.44018H5.81326C4.79448 7.44018 3.96094 8.27372 3.96094 9.2925V18.5541C3.96094 19.5729 4.79448 20.4065 5.81326 20.4065H16.9272C17.946 20.4065 18.7796 19.5729 18.7796 18.5541V9.2925C18.7796 8.27372 17.946 7.44018 16.9272 7.44018ZM8.59175 5.58785C8.59175 4.05042 9.83281 2.80936 11.3702 2.80936C12.9077 2.80936 14.1487 4.05042 14.1487 5.58785V7.44018H8.59175V5.58785ZM16.9272 18.5541H5.81326V9.2925H16.9272V18.5541ZM11.3702 15.7756C12.389 15.7756 13.2226 14.9421 13.2226 13.9233C13.2226 12.9045 12.389 12.071 11.3702 12.071C10.3515 12.071 9.51792 12.9045 9.51792 13.9233C9.51792 14.9421 10.3515 15.7756 11.3702 15.7756Z" fill="#333333"/>
</svg>
